<svg width="1440" height="1605" viewBox="0 0 1440 1605" fill="none" xmlns="http://www.w3.org/2000/svg">
<g clip-path="url(#clip0_586_334)">
<rect width="1440" height="1605" fill="white"/>
<path d="M591.398 980.699C559.158 1157.6 323.858 1379 85.5879 1379C-152.682 1379 -363.147 1228.77 -456.588 939.381C-524.359 729.488 -395.428 156 -49.9559 156C188.314 156 659.17 608.841 591.398 980.699Z" fill="url(#paint0_angular_586_334)"/>
<g filter="url(#filter0_f_586_334)">
<ellipse cx="61.5637" cy="903.022" rx="277.7" ry="277.654" fill="#F24968" fill-opacity="0.9"/>
</g>
<path d="M1833.25 249.08C1810.03 376.512 1640.58 536 1468.99 536C1297.4 536 1145.83 427.782 1078.54 219.316C1029.73 68.1176 1122.58 -345 1371.38 -345C1542.97 -345 1882.05 -18.7919 1833.25 249.08Z" fill="url(#paint1_angular_586_334)"/>
<g filter="url(#filter1_f_586_334)">
<ellipse cx="1451.69" cy="193.124" rx="199.985" ry="200.011" fill="#F24968" fill-opacity="0.9"/>
</g>
</g>
<defs>
<filter id="filter0_f_586_334" x="-276.136" y="565.368" width="675.399" height="675.308" filterUnits="userSpaceOnUse" color-interpolation-filters="sRGB">
<feFlood flood-opacity="0" result="BackgroundImageFix"/>
<feBlend mode="normal" in="SourceGraphic" in2="BackgroundImageFix" result="shape"/>
<feGaussianBlur stdDeviation="30" result="effect1_foregroundBlur_586_334"/>
</filter>
<filter id="filter1_f_586_334" x="1191.7" y="-66.8865" width="519.97" height="520.022" filterUnits="userSpaceOnUse" color-interpolation-filters="sRGB">
<feFlood flood-opacity="0" result="BackgroundImageFix"/>
<feBlend mode="normal" in="SourceGraphic" in2="BackgroundImageFix" result="shape"/>
<feGaussianBlur stdDeviation="30" result="effect1_foregroundBlur_586_334"/>
</filter>
<radialGradient id="paint0_angular_586_334" cx="0" cy="0" r="1" gradientUnits="userSpaceOnUse" gradientTransform="translate(85.5882 970.782) rotate(92.3162) scale(449.903 674.294)">
<stop offset="0.0833333" stop-color="#F24968"/>
<stop offset="0.491006" stop-color="#43AEDA"/>
<stop offset="0.738384" stop-color="#42368C"/>
</radialGradient>
<radialGradient id="paint1_angular_586_334" cx="0" cy="0" r="1" gradientUnits="userSpaceOnUse" gradientTransform="translate(1468.99 241.936) rotate(92.3156) scale(324.092 485.592)">
<stop offset="0.0833333" stop-color="#F24968"/>
<stop offset="0.491006" stop-color="#43AEDA"/>
<stop offset="0.738384" stop-color="#42368C"/>
</radialGradient>
<clipPath id="clip0_586_334">
<rect width="1440" height="1605" fill="white"/>
</clipPath>
</defs>
</svg>
